<?xml version="1.0" standalone="no"?>
<!DOCTYPE svg PUBLIC "-//W3C//DTD SVG 20010904//EN"
 "http://www.w3.org/TR/2001/REC-SVG-20010904/DTD/svg10.dtd">
<svg version="1.0" xmlns="http://www.w3.org/2000/svg"
 width="280.000000pt" height="60.000000pt" viewBox="0 0 280.000000 60.000000"
 preserveAspectRatio="xMidYMid meet">
<metadata>
Created by potrace 1.16, written by Peter Selinger 2001-2019
</metadata>
<g transform="translate(0.000000,60.000000) scale(0.100000,-0.100000)"
fill="#000000" stroke="none">
<path d="M301 418 c-1 -34 -4 -37 -33 -41 l-33 -4 33 -1 c28 -2 32 -5 32 -31
0 -23 -5 -30 -21 -33 -12 -2 -27 -11 -33 -20 -8 -14 -4 -24 23 -52 21 -22 31
-41 28 -50 -9 -23 -36 -19 -47 7 -10 22 -10 22 -7 -3 2 -23 6 -25 57 -26 30
-1 61 3 68 8 14 12 16 38 2 38 -5 0 -10 -9 -10 -20 0 -13 -7 -20 -19 -20 -31
0 -31 26 0 56 39 37 37 77 -3 82 -24 3 -28 8 -28 33 0 26 3 29 30 29 17 0 30
4 30 8 0 4 -12 8 -27 7 -24 0 -29 5 -34 35 l-6 35 -2 -37z"/>
</g>
</svg>
