<?xml version="1.0" encoding="UTF-8" standalone="no"?><!DOCTYPE svg PUBLIC "-//W3C//DTD SVG 1.1//EN" "http://www.w3.org/Graphics/SVG/1.1/DTD/svg11.dtd"><svg width="100%" height="100%" viewBox="0 0 878 896" version="1.1" xmlns="http://www.w3.org/2000/svg" xmlns:xlink="http://www.w3.org/1999/xlink" xml:space="preserve" xmlns:serif="http://www.serif.com/" style="fill-rule:evenodd;clip-rule:evenodd;stroke-linejoin:round;stroke-miterlimit:1.41421;"><g><clipPath id="_clip1"><rect x="0" y="-0.002" width="877.708" height="895.508" clip-rule="nonzero"/></clipPath><g clip-path="url(#_clip1)"><path d="M437.985,580.554l-36.038,-35.421c-0.062,0.117 0.046,-0.096 0.046,-0.096l-26.554,-25.379c0,0 0.046,-0.017 0.121,-0.058c-5.504,-5.009 -10.279,-10.246 -12.95,-15.971c-2.937,-6.321 -3.829,-14.35 -2.646,-21.708c1.271,-7.83 4.838,-14.905 8.871,-19.242c2.254,-2.429 6.3,-5.617 10.75,-7.358c4.046,-1.567 9.029,-2.43 12.267,-2.263c7.546,0.383 16.533,4.063 22.825,8.679c7.891,5.784 15.766,10.067 23.362,18.35c10.454,-10.95 22.534,-19.15 34.521,-24.204c6.425,-2.708 14.479,-3.304 21.779,-1.837c7.779,1.541 14.729,5.375 18.909,9.562c2.341,2.342 5.383,6.496 6.958,11.017c1.429,4.1 2.092,9.096 1.817,12.337c-0.659,7.525 -4.621,17.042 -9.471,23.167c-6.434,8.142 -26.034,25.279 -26.034,25.279l-48.533,45.146Zm86.296,7.708c0.075,4.742 -0.133,24.059 -0.163,26.671c-0.187,20.592 -15.32,34.996 -35.92,34.996c-20.584,0 -36.742,-14.542 -36.742,-35.138c0,-2.062 0.233,-4.183 0.629,-6.304c0.171,0 0.075,-0.979 0.246,-0.979c0,-0.8 0.271,-0.604 0.271,-1.404c0.208,-0.842 0.446,-1.671 0.704,-2.5l0.108,0c0.038,-0.225 0.075,-0.446 0.113,-0.675c0.191,-0.575 0.825,-3.088 2.758,-6.754l46.846,-46.375c0,0 19.946,-17.717 29.525,-28.304c7.171,-7.917 9.55,-22.5 10.375,-33.35c0.358,-4.667 -1.575,-19.992 -4.342,-25.509c-3.391,-6.796 -9.104,-13.991 -12.071,-17.362c-5.304,-6.034 -13.141,-10.596 -23.016,-12.838c-9.275,-2.091 -27.171,-2.262 -35.846,1.138c-6.254,2.45 -9.504,4.258 -12.483,5.546c-0.738,0.2 -5.446,1.345 -5.63,1.345c-0.27,0.538 0.046,-0.925 -0.233,-0.566c-0.037,-0.359 -0.071,-71.85 -0.071,-97.925c22.275,0 47.838,-0.138 70.113,-0.138c0,0.271 18.379,4.263 21.362,4.809c0.142,-7.163 0.084,-23.85 0,-32.405c-1.9,0.275 -18.112,4.105 -21.379,4.909c-16.029,0 -64.512,-0.096 -70.025,-0.096l0,-70.75c0.517,0 4.242,-18.254 4.808,-21.367c-4.125,-0.021 -19.987,0 -33.608,0c1.625,7.429 3.325,13.984 4.879,21.367c0,7.333 0,63.037 0.217,70.846c-23.913,-0.096 -44.854,-0.096 -69.783,-0.096c0,-0.275 -20.125,-4.538 -21.484,-4.813l0,32.405c3.45,-0.842 21.696,-4.538 21.696,-4.809c4.071,0 57.283,0.009 69.354,0l0,98.063c-0.329,-0.2 -0.958,-0.267 -1.762,-0.242c-2.371,-0.987 -5.1,-1.937 -9.434,-3.958c-9.675,-4.513 -20.8,-4.213 -30.308,-2.875c-3.108,0.429 -11.092,2.629 -16.225,4.9c-5.658,2.5 -12.225,7.833 -15.092,11.316c-5.12,6.238 -11.75,16.134 -13.354,27.409c-1.512,10.596 -2.079,22.741 1.654,31.837c3.392,8.271 5.209,13.1 12.196,20.329c-0.058,0.025 5.871,5.205 9.992,8.784c1.767,1.787 3.792,3.679 5.487,4.887l13.692,12.942c0,0 10.263,9.812 10.325,9.662l29.917,31.975c2.321,5.95 3.437,12.917 3.437,18.967c0,20.592 -14.175,35.667 -34.766,35.667c-20.275,0 -35.68,-15.5 -35.68,-35.725c0,-2.4 0,-23.109 -0.037,-27.488l-26.142,0c-0.046,7.571 -0.075,16.509 -0.075,25.704c0,23.05 12.971,43.071 32.004,53.18c8.409,4.475 18,7 28.188,7c20.496,0 38.583,-10.246 49.454,-25.884c10.888,15.513 28.896,25.663 49.288,25.663c33.241,0 59.879,-27.884 59.879,-61.109l0,-24.579l-23.846,0Z" style="fill:#9b1814;fill-rule:nonzero;"/><path d="M20.158,541.837c3.646,16.258 12.45,15.358 40.646,9.042c22.996,-5.18 31.567,-9.563 29.117,-20.471l-2.688,-11.959l-68.858,15.471l1.783,7.917Zm-20.158,-22.908l97.442,-21.871l8.52,37.946c0.992,4.42 1.03,13.687 -6.816,21.304c-5.821,5.687 -16.342,9.266 -32.45,12.891c-19.229,4.321 -41.45,9.305 -53.509,-3.679c-3.241,-3.508 -4.608,-8.379 -5.633,-12.929l-7.554,-33.662Z" style="fill:#9b1814;fill-rule:nonzero;"/><path d="M101.581,574.421l14.629,-5.73l6.313,16.105l-14.633,5.741l-6.309,-16.116Zm-78.358,30.67l69.925,-27.375l6.312,16.134l-69.929,27.371l-6.308,-16.13Z" style="fill:#9b1814;fill-rule:nonzero;"/><path d="M66.845,642.87c-12.813,5.404 -9.93,9.908 -8.025,13.416c2.341,4.342 7.145,5.671 10.795,2.334c3.621,-2.263 3.384,-7.725 3.792,-11.738l1.242,-11.429c1.15,-10.458 4.579,-18.667 14.066,-23.792c10.188,-5.516 20.413,-0.6 28.334,14.038c7.979,14.754 3.921,25.733 -10.434,33.046l-8.233,-15.234c7.567,-3.633 9.233,-7.254 6.388,-12.533c-1.971,-3.637 -5.125,-5.558 -8.88,-3.521c-3.858,2.088 -4.095,5.85 -4.504,9.854l-1.716,16.971c-0.138,5.067 -3.167,14.567 -7.359,17.446c-10.783,7.496 -24.246,11.163 -35.65,-9.925c-4.366,-8.083 -9.15,-25.012 11.946,-34.167l8.238,15.234Z" style="fill:#9b1814;fill-rule:nonzero;"/><path d="M89.779,725.075c-7.017,-7.579 -16.254,-18.641 -4.971,-26.883l41.054,-30.017l-4.166,-5.696l10.212,-7.454l4.088,5.588l16.654,-12.171l10.287,14.062l-16.654,12.188l4.317,5.908l-10.204,7.454l-4.325,-5.908l-37.613,27.5c-2.341,2.204 0.809,5.842 2.279,7.413l-10.958,8.016Z" style="fill:#9b1814;fill-rule:nonzero;"/><path d="M160.835,712.327l0.184,0.196c5.45,-2.146 9.141,-2.65 12.421,-2.258c6.375,0.812 8.441,3.441 10.258,5.204l-15.042,13.929c-5.829,-7.667 -12.558,-11.412 -20.846,-4.1l-31.841,29.479l-11.759,-12.691l55.088,-51.013l11.304,12.213l-9.767,9.041Z" style="fill:#9b1814;fill-rule:nonzero;"/><path d="M198.607,718.18l10.242,-11.917l13.121,11.288l-10.242,11.916l-13.121,-11.287Zm-54.854,63.804l48.95,-56.942l13.125,11.288l-48.95,56.941l-13.125,-11.287Z" style="fill:#9b1814;fill-rule:nonzero;"/><path d="M224.855,782.42l4.683,-6.95c2.08,-3.579 1.684,-6.584 -1.408,-8.663c-5.525,-3.704 -9.762,2.584 -14.775,10.275l-9.879,14.7c-8.504,11.946 -8.554,15.117 -4.617,18.575c4.492,2.846 7.354,-1.166 11.142,-5.829l3.862,-5.754l14.359,9.658l-3.863,5.742c-8.762,13.037 -19.008,16.575 -33.262,7c-12.7,-8.546 -15.463,-20.183 -3.767,-36.383l13.596,-20.23c11.621,-17.533 23.362,-16.366 34.3,-9.025c14.471,9.742 13.687,22.363 7.333,31.571l-3.341,4.971l-14.363,-9.658Z" style="fill:#9b1814;fill-rule:nonzero;"/><path d="M257.395,856.287c-9.734,-3.442 -23.055,-8.929 -16.9,-21.496l22.383,-45.662l-6.333,-3.105l5.566,-11.354l6.217,3.042l9.083,-18.525l15.663,7.675l-9.084,18.517l6.571,3.229l-5.566,11.375l-6.571,-3.234l-20.513,41.85c-1.046,3.03 3.434,4.788 5.459,5.488l-5.975,12.2Z" style="fill:#9b1814;fill-rule:nonzero;"/><path d="M363.243,817.427c2.163,-8.646 3.38,-17.391 -6.604,-19.721c-6.096,-1.42 -10.558,0.138 -12.104,6.75c-1.725,7.384 2.279,11.317 7.133,16.284c5.092,5.154 14.417,14.996 18.321,21.1c4.804,7.541 5.388,13.841 3.417,22.266c-4.3,18.405 -18.721,25.155 -36.488,21.013c-21.783,-5.083 -26.716,-19.092 -22.662,-36.471l1.666,-7.129l18.15,4.237l-1.333,5.713c-2.591,9.367 -1.346,16.904 7.6,18.992c7.65,1.8 12.217,-1.371 13.946,-8.771c1.329,-5.7 -0.354,-10.192 -4.267,-14.529c-7.741,-9.6 -18.3,-17.675 -23.421,-29.13c-1.954,-5.095 -2.395,-10.808 -1.187,-15.987c3.875,-16.608 15.329,-23.5 34.521,-19.025c28.912,6.754 22.929,28.879 20.816,38.496l-17.504,-4.088Z" style="fill:#9b1814;fill-rule:nonzero;"/><path d="M418.361,844.959l0.562,-8.38c0.013,-4.129 -1.829,-6.529 -5.546,-6.783c-6.645,-0.437 -7.154,7.133 -7.637,16.313l-1.192,17.658c-1.387,14.587 0.163,17.35 5.3,18.379c5.321,0.221 5.784,-4.692 6.721,-10.629l0.467,-6.908l17.267,1.166l-0.467,6.909c-1.058,15.662 -8.15,23.875 -25.284,22.712c-15.274,-1.029 -23.5,-9.729 -21.491,-29.608l1.646,-24.313c1.275,-20.983 12.016,-25.871 25.166,-24.987c17.4,1.179 23.05,12.496 22.163,23.654l-0.409,5.979l-17.266,-1.162Z" style="fill:#9b1814;fill-rule:nonzero;"/><path d="M453.688,894.846l-8.946,-99.429l17.238,-1.542l2.908,32.342l0.262,-0.029c4.121,-9.179 10.93,-10.721 14.646,-11.063c9.809,-0.883 18.271,4.1 18.946,17.538l5.192,57.666l-17.234,1.559l-4.604,-51.184c-0.654,-7.287 -1.883,-11.991 -8.404,-11.666c-6.521,0.321 -8.221,6.612 -7.242,14.541l4.475,49.725l-17.237,1.542Z" style="fill:#9b1814;fill-rule:nonzero;"/><path d="M535.335,858.757c2.309,8.9 4.084,12.562 12.205,10.458c7.733,-2.008 7.37,-6.054 5.066,-14.937l-6.287,-24.229c-1.775,-6.821 -3.575,-13.784 -11.959,-11.625c-8.887,2.316 -7.087,9.283 -5.312,16.104l6.287,24.229Zm-19.362,-5.704c-6.325,-24.913 -10.213,-40.959 15.046,-47.517c24.875,-6.454 29.141,9.492 35.729,34.338c6.683,25.229 5.883,36.991 -15.863,42.229c-21.937,6.104 -28.487,-3.75 -34.912,-29.05" style="fill:#9b1814;fill-rule:nonzero;"/><path d="M600.422,837.544c3.745,8.379 6.1,11.708 13.758,8.296c7.296,-3.242 6.275,-7.159 2.542,-15.554l-10.192,-22.85c-2.863,-6.459 -5.792,-13.013 -13.696,-9.505c-8.383,3.746 -5.462,10.317 -2.592,16.759l10.18,22.854Zm-20.03,-2.442c-10.333,-23.529 -16.804,-38.704 7.03,-49.329c23.458,-10.458 30.3,4.575 40.875,27.975c10.75,23.783 11.895,35.521 -8.692,44.25c-20.633,9.629 -28.717,0.983 -39.213,-22.896" style="fill:#9b1814;fill-rule:nonzero;"/><path d="M622.642,741.131l51.543,85.532l-14.824,8.933l-51.543,-85.532l14.824,-8.933Z" style="fill:#9b1814;"/><path d="M699.685,732.217c3.254,-3.146 7.662,-7.017 7.187,-11.733c-0.504,-3.021 -2.721,-5.7 -6.042,-9.155c-5.175,-5.362 -8.908,-6.945 -15.229,-1.216l-6.229,5.987l17.821,18.517l2.492,-2.4Zm31.487,31.937c2.783,-2.666 5.933,-5.154 7.321,-8.52c2.067,-5.138 -1.975,-10.288 -5.483,-13.938c-7.475,-7.762 -12.15,-9.55 -20.488,-1.517l-5.183,4.984l20.95,21.775l2.883,-2.784Zm-6.15,26.25l-69.225,-71.929l21.671,-20.875c5.75,-5.529 11.775,-10.596 20.325,-9.391c6.85,0.987 11.3,4.633 16.004,9.537c5.996,6.229 10.571,13.671 5.863,23.354l0.187,0.196c8.592,-6.233 17.567,-2.667 26.517,6.625c2.866,2.979 5.533,6.133 7.533,9.746c5.892,11.887 4.396,20.704 -5.187,29.942l-23.688,22.795Z" style="fill:#9b1814;fill-rule:nonzero;"/><path d="M769.523,707.483c7.383,5.475 11.071,7.204 16.062,0.466c4.742,-6.42 1.93,-9.325 -5.445,-14.795l-20.125,-14.884c-5.667,-4.196 -11.438,-8.466 -16.588,-1.516c-5.467,7.383 0.304,11.65 5.979,15.85l20.117,14.879Zm-18.642,7.737c-20.562,-15.387 -33.675,-25.412 -18.166,-46.396c15.283,-20.637 28.637,-10.937 49.37,4.238c21.046,15.429 27.821,25.075 14.192,42.8c-13.217,18.55 -24.496,14.996 -45.396,-0.642" style="fill:#9b1814;fill-rule:nonzero;"/><path d="M800.49,629.533c0.659,5.121 0.905,11.075 2.163,16.804c0.733,3.229 3.879,5.275 6.721,6.721c5.091,2.625 9.321,2.838 12.225,-2.846c4.683,-9.129 -7.667,-13.354 -13.879,-16.987l-7.23,-3.692Zm36.288,15.875c-2.679,-0.025 -5.108,-1.121 -7.363,-2.571l-0.12,0.242c3.75,6.417 4.404,12.717 1.737,17.942c-6.379,12.45 -15.442,14.683 -29.196,7.633c-15.291,-7.829 -13.441,-20.492 -12.229,-35.125c0.613,-7.929 -1.133,-11.804 -7.25,-13.288c-3.329,-0.8 -5.021,1.317 -7.137,5.459c-3.588,7.004 -0.521,10.062 5.583,13.041l-7.517,14.7c-12.75,-6.379 -19.508,-15.083 -9.616,-34.395c10.737,-20.971 22.433,-16.646 31.07,-11.905l39.467,20.2c3.204,1.642 6.529,2.755 10.042,3.496l-7.471,14.571Z" style="fill:#9b1814;fill-rule:nonzero;"/><path d="M798.409,576.891l0.079,-0.237c-4.429,-3.85 -6.596,-6.867 -7.758,-9.967c-2.242,-6.025 -0.875,-9.071 -0.146,-11.496l19.308,6.863c-4.079,8.716 -4.271,16.408 6.046,20.354l40.896,14.529l-5.788,16.312l-70.746,-25.129l5.563,-15.679l12.546,4.45Z" style="fill:#9b1814;fill-rule:nonzero;"/><path d="M828.164,520.431c-5.829,-1.404 -16.337,-3.145 -17.875,4.813c-1.546,7.975 5.538,8.537 12.763,10.458l24.566,4.746c7.134,0.971 13.113,0.221 14.117,-5.008c1.063,-5.492 -2.987,-9.113 -11.479,-10.759l-22.092,-4.25Zm38.438,7.413l-0.059,0.25c6.813,4.704 7.867,9.783 6.975,16.537c-2.775,14.375 -16.416,14.85 -28.258,12.988l-26.667,-5.142c-20.183,-4.308 -24.57,-11.791 -22.712,-22.825c1.262,-7.216 4.625,-11.3 12.333,-13.35l0.05,-0.254c-2.291,-0.042 -4.412,-0.321 -6.629,-0.742l-25.229,-4.87l3.279,-16.984l98.021,18.909l-3.267,16.983l-7.837,-1.5Z" style="fill:#9b1814;fill-rule:nonzero;"/><path d="M22.257,285.429l28.054,-57.263l13.488,6.608l-9.788,19.984l78.484,38.441l-8.413,17.167l-78.483,-38.437l-9.85,20.108l-13.492,-6.608Z" style="fill:#9b1814;fill-rule:nonzero;"/><path d="M127.906,250.903c7.825,5.241 11.692,6.833 16.475,-0.313c4.554,-6.8 1.533,-9.658 -6.296,-14.891l-21.333,-14.284c-6.013,-4.021 -12.138,-8.125 -17.075,-0.754c-5.242,7.829 0.883,11.938 6.9,15.958l21.329,14.284Zm-18.725,8.825c-21.821,-14.775 -35.738,-24.421 -20.85,-46.654c14.658,-21.896 28.804,-12.596 50.779,1.95c22.313,14.775 29.717,24.329 16.617,43.17c-12.65,19.621 -24.384,16.534 -46.546,1.534" style="fill:#9b1814;fill-rule:nonzero;"/><path d="M140.652,171.912l0.184,-0.204c-2.667,-5.383 -3.521,-9.108 -3.388,-12.496c0.267,-6.583 2.767,-8.925 4.417,-10.937l15.537,14.154c-7.32,6.625 -10.554,13.833 -2.358,21.662l32.913,29.959l-11.95,13.121l-56.938,-51.83l11.488,-12.616l10.095,9.187Z" style="fill:#9b1814;fill-rule:nonzero;"/><path d="M199.59,167.974c5.93,7.321 9.146,9.988 15.825,4.571c6.367,-5.158 4.321,-8.771 -1.612,-16.087l-16.158,-19.942c-4.559,-5.617 -9.2,-11.35 -16.092,-5.758c-7.317,5.929 -2.679,11.658 1.875,17.279l16.162,19.937Zm-20.495,2.9c-16.484,-20.554 -26.925,-33.879 -6.142,-50.725c20.471,-16.587 31.237,-3.52 47.929,16.863c16.958,20.696 21.204,32.017 3.129,46.137c-17.875,15.017 -28.171,8.6 -44.916,-12.275" style="fill:#9b1814;fill-rule:nonzero;"/><path d="M234.467,90.191l0.238,-0.129c-0.738,-9.692 5.712,-14.421 9.312,-16.371c8.892,-4.804 18.892,-3.537 24.971,8.854l28.258,52.254l-15.621,8.446l-24.42,-45.166c-3.571,-6.609 -6.63,-10.542 -12.65,-7.6c-6.013,2.945 -5.071,9.575 -0.934,16.65l23.717,43.845l-15.617,8.446l-36.641,-67.75l15.616,-8.446l3.771,6.967Z" style="fill:#9b1814;fill-rule:nonzero;"/><path d="M334.248,121.534c-9.425,4.816 -22.916,10.845 -27.912,-2.588l-18.167,-48.9l-6.783,2.521l-4.517,-12.158l6.654,-2.471l-7.375,-19.846l16.771,-6.225l7.371,19.837l7.037,-2.616l4.521,12.158l-7.041,2.621l16.65,44.796c1.52,2.929 5.987,0.833 7.941,-0.184l4.85,13.055Z" style="fill:#9b1814;fill-rule:nonzero;"/><path d="M353.242,89.934c2.066,9.192 3.766,13.009 12.158,11.117c7.992,-1.792 7.762,-5.937 5.696,-15.129l-5.638,-25.042c-1.587,-7.062 -3.2,-14.254 -11.862,-12.308c-9.188,2.067 -7.571,9.258 -5.984,16.321l5.63,25.041Zm-19.65,-6.495c-5.646,-25.738 -9.096,-42.313 17.012,-48.184c25.704,-5.783 29.554,10.704 35.471,36.379c6,26.08 4.787,38.109 -17.683,42.742c-22.684,5.521 -29.067,-4.8 -34.8,-30.937" style="fill:#9b1814;fill-rule:nonzero;"/><path d="M501.028,70.597c-0.279,1.896 -0.571,3.929 -0.85,5.825c-2.367,18.584 -9.713,32.409 -30.958,30.8c-31.321,-2.375 -31.855,-22.412 -29.792,-49.646l1.1,-14.566c2.792,-25.954 6.296,-45.134 36.8,-42.821c17.004,1.554 25.875,10.996 25.917,28.529c0.075,2.608 0.15,5.217 -0.18,7.796l-18.8,-1.429c-0.316,-6.596 1.292,-18.8 -8.104,-19.509c-14.979,-1.133 -15.1,16.796 -15.7,24.692l-2.15,28.325c-0.637,8.442 -0.996,22.246 12.075,23.238c10.484,0.795 10.542,-16.184 11.442,-22.688l19.2,1.454Z" style="fill:#9b1814;fill-rule:nonzero;"/><path d="M549.903,79.048c-5.012,1.721 -10.95,3.179 -16.45,5.621c-3.087,1.408 -4.504,4.979 -5.383,8.137c-1.583,5.655 -0.933,9.95 5.379,11.709c10.129,2.825 11.842,-10.45 14.217,-17.446l2.237,-8.021Zm-8.525,39.725c-0.521,-2.696 0.079,-5.362 1.079,-7.921l-0.266,-0.075c-5.667,5.088 -11.884,7.038 -17.671,5.421c-13.808,-3.85 -17.921,-12.508 -13.663,-27.771c4.726,-16.962 17.838,-17.704 32.792,-19.487c8.083,-1.004 11.629,-3.567 11.867,-10.017c0.129,-3.508 -2.354,-4.771 -6.958,-6.054c-7.759,-2.163 -10.217,1.55 -11.955,8.296l-16.312,-4.546c3.792,-14.117 11.15,-22.696 32.591,-16.721c23.284,6.496 21.313,19.129 18.334,28.792l-12.204,43.8c-0.996,3.55 -1.421,7.121 -1.45,10.796l-16.184,-4.513Z" style="fill:#9b1814;fill-rule:nonzero;"/><path d="M591.152,138.348c-10.142,-3.029 -24.071,-7.979 -18.404,-21.15l20.608,-47.917l-6.641,-2.858l5.12,-11.921l6.521,2.804l8.375,-19.437l16.429,7.066l-8.358,19.442l6.892,2.971l-5.125,11.916l-6.9,-2.97l-18.888,43.908c-0.916,3.167 3.767,4.737 5.871,5.35l-5.5,12.796Z" style="fill:#9b1814;fill-rule:nonzero;"/><path d="M602.623,143.148l54.775,-86.537l15,9.487l-17.817,28.158l0.229,0.146c9.092,-4.908 15.605,-1.925 18.83,0.125c8.541,5.404 12.325,14.75 4.483,26.109l-31.771,50.191l-15,-9.496l28.192,-44.537c4.021,-6.346 5.962,-10.942 0.454,-14.75c-5.504,-3.808 -10.833,0.258 -14.992,7.325l-27.379,43.271l-15.004,-9.492Z" style="fill:#9b1814;fill-rule:nonzero;"/><path d="M683.173,169.526c-6.404,6.916 -8.587,10.483 -2.266,16.32c6.016,5.563 9.295,3.025 15.695,-3.895l17.43,-18.842c4.908,-5.313 9.925,-10.729 3.404,-16.75c-6.913,-6.396 -11.925,-0.988 -16.834,4.325l-17.429,18.842Zm-5.804,-19.871c17.996,-19.25 29.704,-31.492 49.346,-13.321c19.337,17.896 7.942,30.421 -9.854,49.854c-18.075,19.738 -28.675,25.558 -45.229,9.683c-17.413,-15.558 -12.53,-26.666 5.737,-46.216" style="fill:#9b1814;fill-rule:nonzero;"/><path d="M789.894,170.277l-79.088,65.091l-11.284,-13.712l79.087,-65.09l11.285,13.711Z" style="fill:#9b1814;"/><path d="M791.183,198.857l13.308,-9.083l10.017,14.654l-13.313,9.088l-10.012,-14.659Zm-71.242,48.696l63.579,-43.454l10.021,14.658l-63.583,43.454l-10.017,-14.658Z" style="fill:#9b1814;fill-rule:nonzero;"/><path d="M795.169,274.707l7.587,-4.054c3.604,-2.233 4.684,-5.133 2.884,-8.508c-3.213,-6.021 -10.084,-2.35 -18.325,2.208l-16.013,8.554c-13.45,6.713 -15.021,9.567 -13.117,14.584c2.7,4.762 7.217,2.491 12.9,0.079l6.255,-3.342l8.362,15.658l-6.254,3.346c-14.217,7.588 -25.192,5.867 -33.5,-9.666c-7.396,-13.85 -4.3,-25.717 14.096,-34.775l22.033,-11.771c18.975,-10.288 29.046,-3.592 35.417,8.329c8.429,15.779 1.637,26.833 -8.55,32.121l-5.413,2.891l-8.362,-15.654Z" style="fill:#9b1814;fill-rule:nonzero;"/></g></g></svg>